<?xml version="1.0" encoding="utf-8"?><svg xml:space="preserve" viewBox="0 0 100 100" y="0" x="0" xmlns="http://www.w3.org/2000/svg" id="圖層_1" version="1.1" width="800px" height="800px" xmlns:xlink="http://www.w3.org/1999/xlink" style="width:100%;height:100%;background-size:initial;background-repeat-y:initial;background-repeat-x:initial;background-position-y:initial;background-position-x:initial;background-origin:initial;background-color:initial;background-clip:initial;background-attachment:initial;animation-play-state:paused" ><g class="ldl-scale" style="transform-origin:50% 50%;transform:rotate(0deg) scale(1, 1);animation-play-state:paused" ><path stroke-miterlimit="10" stroke-width="3.5" stroke="#333" fill="#f5e6c8" d="M84.224 79.51H15.731A3.731 3.731 0 0 1 12 75.779V24.221c0-2.06 1.67-3.731 3.731-3.731h68.493c2.06 0 3.731 1.67 3.731 3.731V75.78a3.73 3.73 0 0 1-3.731 3.73z" style="stroke:rgb(51, 51, 51);fill:rgb(245, 230, 200);animation-play-state:paused" ></path>
<path stroke-miterlimit="10" stroke-width="3.5" stroke="#333" fill="#f5e6c8" d="M88 38.263L51.444 51.175a4.267 4.267 0 0 1-2.843 0L12.045 38.263V24.221c0-2.06 1.67-3.731 3.731-3.731h68.493c2.06 0 3.731 1.67 3.731 3.731v14.042z" style="stroke:rgb(51, 51, 51);fill:rgb(245, 230, 200);animation-play-state:paused" ></path>
<path fill="#c33737" d="M53.999 39.044c.46.183.823.435.899.735.089.349-.052.782.204 1.034.302.297.797.03 1.221.018.928-.025 1.823 1.817 2.846 2.175.578.202 1.225.568 1.267 1.179.037.545-.445 1.028-.395 1.571.07.765 1.077 1.07 1.404 1.766.484 1.031-.747 2.174-.525 3.29.096.482.454.882.534 1.367.082.496-.15 1.005-.503 1.363-.584.595-2.015 1.268-1.578 2.324.115.277.34.492.498.747.533.86.099 2.157-.844 2.523-.633.246-1.391.114-1.966.475-.405.254-.635.701-.908 1.093s-.666.772-1.144.761c-.852-.02-1.442-1.254-2.257-1.003-.41.127-.607.575-.87.914a2.133 2.133 0 0 1-1.828.801c-1.188-.099-2.037-1.684-3.293-.714-.169.13-.317.3-.521.364-.226.071-.469-.003-.694-.079-.523-.178-1.102-.43-1.282-.951-.145-.42.01-.93-.241-1.297-.237-.347-.728-.401-1.144-.343-.416.058-.837.194-1.247.102-.588-.133-1.001-.79-.866-1.378.048-.209.156-.412.134-.626-.029-.294-.298-.511-.576-.613-.641-.234-1.443-.609-1.768-1.26-.365-.732-.019-1.167-.609-1.905-.55-.687-.57-1.746-.047-2.454.355-.48.954-.884.922-1.481-.034-.624-.732-.958-1.116-1.452-.643-.827-.176-2.247.832-2.531.284-.08.593-.083.855-.22.474-.248.641-.869.551-1.397-.216-1.275 1.243-.815 2.001-1.701.729-.853 1.028-2.195 2.22-2.568.754-.235 1.525.055 2.237-.31.643-.33.794-1.141 1.713-1.16 1.09-.023 2.022 1.297 3.046.922.208-.076.386-.218.587-.313.412-.191 1.471-.079 2.251.232z" style="fill:rgb(195, 55, 55);animation-play-state:paused" ></path>
<circle stroke-miterlimit="10" stroke-width="3.5" stroke="#000" fill="none" opacity=".3" r="7.545" cy="50.231" cx="49.977" style="animation-play-state:paused" ></circle>
<metadata xmlns:d="https://loading.io/stock/" style="animation-play-state:paused" ><d:name style="animation-play-state:paused" >mail</d:name>
<d:tags style="animation-play-state:paused" >mail,seal,post,deliver,send,stamp,letter,envelope,message,encrypted,protect,genuine,stationery</d:tags>
<d:license style="animation-play-state:paused" >by</d:license>
<d:slug style="animation-play-state:paused" >40sxxg</d:slug></metadata></g><!-- generated by https://loading.io/ --></svg>